<svg version="1.1" xmlns="http://www.w3.org/2000/svg" xmlns:xlink="http://www.w3.org/1999/xlink" width="1600px" height="395px" viewBox="0,0,255.98715,63.19032"><g fill="none" fill-rule="nonzero" stroke="none" stroke-width="1" stroke-linecap="butt" stroke-linejoin="miter" stroke-miterlimit="10" stroke-dasharray="" stroke-dashoffset="0" font-family="none" font-weight="none" font-size="none" text-anchor="none" style="mix-blend-mode: normal"><g transform="translate(0.67686,-1.68156) scale(0.16,0.16)"><g id="custom_1"><rect x="0" y="0" width="1600" height="395" fill-opacity="0" fill="#914949"></rect><g transform="translate(0,-415)" id="Grupo_1"><path transform="translate(-84.48,337.481)" d="M1734.97,93.533h-30.27c-57.495,-8.762 -201.919,-7.529 -316.908,49.35c-114.989,56.879 -328.028,163.806 -443.018,163.345c-114.989,0.461 -239.607,-42.708 -370.191,-54.194c-135.1,-13.841 -141.683,35.37 -256.672,59.505c-114.989,25.058 -183.4,25.307 -260.416,0l-57.495,10.377v140.563h1724.837l5.1,-254.111" id="back" fill-opacity="0.78824" fill="#4a4a4a"></path><path transform="translate(-6,440.307)" d="M1681.939,169.541l-4.958,190.152h-1676.981v-110.739l64.765,5.555c68.473,-0.36 150.592,-36.348 262.391,-55.1c111.8,-18.06 100.6,-21.808 231.951,-11.45c126.961,8.595 243.193,25.888 354.993,25.541c111.8,0.345 306.849,-102.307 427.483,-132.834c120.634,-30.527 219.933,-43.538 279.5,-29.97l55.9,14.507" id="middle" fill-opacity="0.61961" fill="#b69c6e"></path><path transform="translate(-64.838,486.293)" d="M1698.1,163.536l-5,181.13h-1693.1v-141.558l61.731,27.334c61.39,17.994 325.739,-85.544 458.347,-75.679c128.182,8.187 284.461,37.109 397.334,36.78c112.874,0.329 324.192,-69.319 437.065,-109.862c112.873,-40.543 262.466,-66.323 318.9,-60.078h30.586" id="front" fill="#f7eed9"></path></g></g></g></g></svg>