<svg xmlns="http://www.w3.org/2000/svg" width="600" height="600" viewBox="320 330 180 135" preserveAspectRatio="xMidYMid meet">
  <defs>
    <clipPath id="3eb3d5d81d">
      <path d="M 360.210938 332.996094 L 457.410156 332.996094 L 457.410156 430.199219 L 360.210938 430.199219 Z M 360.210938 332.996094 " clip-rule="nonzero"/>
    </clipPath>
    <clipPath id="daef4bcb67">
      <path d="M 408.808594 332.996094 C 381.96875 332.996094 360.210938 354.757812 360.210938 381.597656 C 360.210938 408.4375 381.96875 430.199219 408.808594 430.199219 C 435.652344 430.199219 457.410156 408.4375 457.410156 381.597656 C 457.410156 354.757812 435.652344 332.996094 408.808594 332.996094 Z M 408.808594 332.996094 " clip-rule="nonzero"/>
    </clipPath>
    <clipPath id="ccb142af3d">
      <path d="M 367.238281 351.25 L 450.179688 351.25 L 450.179688 412.160156 L 367.238281 412.160156 Z M 367.238281 351.25 " clip-rule="nonzero"/>
    </clipPath>
  </defs>
  <g clip-path="url(#3eb3d5d81d)">
    <g clip-path="url(#daef4bcb67)">
      <path fill="#b68c6e" d="M 360.210938 332.996094 L 457.410156 332.996094 L 457.410156 430.199219 L 360.210938 430.199219 Z M 360.210938 332.996094 " fill-opacity="1" fill-rule="nonzero"/>
    </g>
  </g>
  <g clip-path="url(#ccb142af3d)">
    <path fill="#ffffff" d="M 398.867188 404.230469 L 377.128906 379.335938 C 375.808594 377.902344 374.164062 377.132812 372.183594 377.132812 C 370.207031 377.132812 368.5625 377.902344 367.242188 379.335938 L 367.242188 379.445312 L 393.929688 409.957031 C 395.25 411.390625 396.894531 412.160156 398.867188 412.160156 C 400.847656 412.160156 402.496094 411.390625 403.8125 409.957031 L 408.863281 404.117188 L 413.914062 409.957031 C 415.125 411.390625 416.773438 412.160156 418.742188 412.160156 C 420.722656 412.160156 422.371094 411.390625 423.6875 409.957031 C 432.582031 399.714844 441.476562 389.578125 450.371094 379.445312 L 450.371094 379.335938 C 449.054688 377.902344 447.40625 377.132812 445.4375 377.132812 C 443.453125 377.132812 441.808594 377.902344 440.601562 379.335938 L 418.742188 404.230469 L 413.808594 398.503906 L 418.636719 392.882812 L 413.695312 387.269531 L 427.96875 370.855469 C 429.398438 369.203125 429.398438 366.667969 427.96875 364.910156 L 425.554688 362.261719 L 408.863281 381.429688 L 392.0625 362.261719 L 389.648438 365.015625 C 388.21875 366.667969 388.21875 369.203125 389.648438 370.855469 L 403.8125 387.15625 L 398.980469 392.777344 L 382.617188 374.050781 C 379.546875 370.523438 379.546875 365.347656 382.617188 361.824219 L 392.0625 351.027344 L 408.863281 370.195312 L 425.554688 351.027344 L 434.996094 361.824219 C 438.074219 365.347656 438.074219 370.523438 435.113281 373.9375 L 413.808594 398.503906 L 408.863281 392.882812 L 403.921875 398.503906 Z M 398.867188 404.230469 " fill-opacity="1" fill-rule="evenodd"/>
  </g>
  <path fill="#ffff" d="M 332.269531 460.710938 L 331.296875 452.894531 L 327.597656 460.710938 L 323.695312 460.710938 L 322.480469 447.617188 L 326.261719 447.617188 L 326.597656 455.785156 L 330.160156 447.617188 L 334.007812 447.617188 L 334.980469 455.960938 L 338.113281 447.617188 L 342 447.617188 L 336.007812 460.710938 Z M 332.269531 460.710938 " fill-opacity="1" fill-rule="nonzero"/>
  <path fill="#ffff" d="M 353.671875 460.710938 L 353.304688 458.417969 L 349.230469 458.417969 L 348.066406 460.710938 L 344.097656 460.710938 L 351.050781 447.957031 L 355.046875 447.386719 L 357.613281 460.710938 Z M 350.660156 455.515625 L 352.859375 455.515625 L 352.335938 452.195312 Z M 350.660156 455.515625 " fill-opacity="1" fill-rule="nonzero"/>
  <path fill="#ffff" d="M 371.605469 460.710938 L 367.800781 453.640625 L 366.558594 460.710938 L 363.035156 460.710938 L 365.328125 447.617188 L 368.367188 447.617188 L 372.402344 455.179688 L 373.738281 447.617188 L 377.25 447.617188 L 374.957031 460.710938 Z M 371.605469 460.710938 " fill-opacity="1" fill-rule="nonzero"/>
  <path fill="#ffff" d="M 381.558594 460.511719 L 383.800781 447.710938 C 385.167969 447.515625 386.421875 447.414062 387.566406 447.414062 C 389.824219 447.414062 391.601562 447.929688 392.898438 448.953125 C 394.195312 449.980469 394.84375 451.53125 394.84375 453.597656 C 394.84375 454.839844 394.601562 455.941406 394.128906 456.890625 C 393.65625 457.847656 393 458.613281 392.15625 459.1875 C 391.320312 459.765625 390.359375 460.199219 389.28125 460.496094 C 388.207031 460.792969 387.039062 460.941406 385.769531 460.941406 C 384.636719 460.941406 383.234375 460.796875 381.558594 460.511719 Z M 385.972656 457.742188 L 386.890625 457.742188 C 388.140625 457.742188 389.097656 457.351562 389.765625 456.566406 C 390.441406 455.777344 390.777344 454.785156 390.777344 453.597656 C 390.777344 452.621094 390.53125 451.878906 390.035156 451.371094 C 389.550781 450.867188 388.84375 450.613281 387.917969 450.613281 L 387.253906 450.613281 Z M 385.972656 457.742188 " fill-opacity="1" fill-rule="nonzero"/>
  <path fill="#ffff" d="M 399.675781 460.710938 L 401.96875 447.617188 L 410.246094 447.617188 L 409.515625 450.695312 L 405.359375 450.695312 L 405.007812 452.761719 L 408.976562 452.761719 L 408.464844 455.664062 L 404.480469 455.664062 L 404.144531 457.621094 L 408.679688 457.621094 L 407.949219 460.710938 Z M 399.675781 460.710938 " fill-opacity="1" fill-rule="nonzero"/>
  <path fill="#ffff" d="M 419.019531 456.191406 L 418.238281 460.710938 L 414.308594 460.710938 L 416.605469 447.617188 C 418.050781 447.464844 419.371094 447.386719 420.558594 447.386719 C 424.183594 447.386719 426 448.730469 426 451.410156 C 426 453.402344 425.085938 454.78125 423.261719 455.542969 L 424.894531 460.710938 L 420.910156 460.710938 L 419.683594 456.191406 Z M 419.492188 453.585938 L 420.085938 453.585938 C 420.714844 453.585938 421.199219 453.402344 421.53125 453.03125 C 421.863281 452.652344 422.03125 452.179688 422.03125 451.613281 C 422.03125 450.667969 421.558594 450.195312 420.613281 450.195312 L 420.085938 450.195312 Z M 419.492188 453.585938 " fill-opacity="1" fill-rule="nonzero"/>
  <path fill="#ffff" d="M 440.113281 457.433594 L 439.34375 460.710938 L 430.703125 460.710938 L 432.996094 447.617188 L 436.9375 447.617188 L 435.210938 457.433594 Z M 440.113281 457.433594 " fill-opacity="1" fill-rule="nonzero"/>
  <path fill="#ffff" d="M 446.308594 454.691406 L 447.550781 447.617188 L 451.480469 447.617188 L 450.222656 454.746094 C 450.042969 455.746094 450.066406 456.46875 450.304688 456.90625 C 450.546875 457.347656 451.007812 457.566406 451.679688 457.566406 C 452.320312 457.566406 452.796875 457.363281 453.113281 456.960938 C 453.425781 456.546875 453.679688 455.808594 453.867188 454.746094 L 455.125 447.617188 L 459.050781 447.617188 L 457.8125 454.609375 C 457.414062 456.878906 456.722656 458.503906 455.746094 459.484375 C 454.773438 460.457031 453.34375 460.941406 451.453125 460.941406 C 449.40625 460.941406 447.949219 460.414062 447.078125 459.363281 C 446.214844 458.304688 445.957031 456.742188 446.308594 454.691406 Z M 446.308594 454.691406 " fill-opacity="1" fill-rule="nonzero"/>
  <path fill="#ffff" d="M 463.976562 457.109375 C 465.28125 457.703125 466.382812 458 467.285156 458 C 468.335938 458 468.863281 457.6875 468.863281 457.066406 C 468.863281 456.808594 468.75 456.566406 468.527344 456.351562 C 468.300781 456.128906 468.015625 455.941406 467.664062 455.785156 C 467.320312 455.625 466.949219 455.425781 466.554688 455.191406 C 466.167969 454.957031 465.804688 454.703125 465.460938 454.421875 C 465.117188 454.136719 464.835938 453.746094 464.613281 453.261719 C 464.386719 452.773438 464.273438 452.222656 464.273438 451.601562 C 464.273438 450.304688 464.761719 449.277344 465.746094 448.523438 C 466.734375 447.765625 468.058594 447.386719 469.714844 447.386719 C 470.972656 447.386719 472.292969 447.707031 473.671875 448.347656 L 472.46875 451.101562 C 471.335938 450.585938 470.363281 450.332031 469.554688 450.332031 C 468.558594 450.332031 468.066406 450.613281 468.066406 451.167969 C 468.066406 451.421875 468.179688 451.65625 468.40625 451.871094 C 468.628906 452.078125 468.910156 452.257812 469.253906 452.410156 C 469.605469 452.554688 469.976562 452.746094 470.363281 452.992188 C 470.757812 453.226562 471.125 453.484375 471.46875 453.761719 C 471.8125 454.039062 472.09375 454.429688 472.320312 454.921875 C 472.542969 455.417969 472.65625 455.980469 472.65625 456.609375 C 472.65625 457.996094 472.160156 459.066406 471.160156 459.820312 C 470.160156 460.570312 468.757812 460.941406 466.949219 460.941406 C 465.300781 460.941406 463.84375 460.589844 462.574219 459.875 Z M 463.976562 457.109375 " fill-opacity="1" fill-rule="nonzero"/>
  <path fill="#ffff" d="M 478.671875 450.789062 L 479.414062 447.617188 L 490.160156 447.617188 L 489.402344 450.789062 L 486.097656 450.789062 L 484.355469 460.710938 L 480.425781 460.710938 L 482.167969 450.789062 Z M 478.671875 450.789062 " fill-opacity="1" fill-rule="nonzero"/></svg>