<svg xmlns="http://www.w3.org/2000/svg" xmlns:xlink="http://www.w3.org/1999/xlink" width="500" zoomAndPan="magnify" viewBox="0 0 375 374.999991" height="500" preserveAspectRatio="xMidYMid meet" version="1.0"><defs><g/><clipPath id="de6cf774f8"><path d="M 135.660156 104.164062 L 248.160156 104.164062 L 248.160156 216.664062 L 135.660156 216.664062 Z M 135.660156 104.164062 " clip-rule="nonzero"/></clipPath><clipPath id="1fa8b993b4"><path d="M 191.910156 104.164062 C 160.84375 104.164062 135.660156 129.347656 135.660156 160.414062 C 135.660156 191.480469 160.84375 216.664062 191.910156 216.664062 C 222.976562 216.664062 248.160156 191.480469 248.160156 160.414062 C 248.160156 129.347656 222.976562 104.164062 191.910156 104.164062 Z M 191.910156 104.164062 " clip-rule="nonzero"/></clipPath><clipPath id="8b4a7bc94e"><path d="M 143.792969 125.289062 L 239.792969 125.289062 L 239.792969 195.789062 L 143.792969 195.789062 Z M 143.792969 125.289062 " clip-rule="nonzero"/></clipPath></defs><g clip-path="url(#de6cf774f8)"><g clip-path="url(#1fa8b993b4)"><path fill="#f7eed9" d="M 135.660156 104.164062 L 248.160156 104.164062 L 248.160156 216.664062 L 135.660156 216.664062 Z M 135.660156 104.164062 " fill-opacity="1" fill-rule="nonzero"/></g></g><g clip-path="url(#8b4a7bc94e)"><path fill="#b68c6e" d="M 180.402344 186.609375 L 155.242188 157.796875 C 153.714844 156.136719 151.808594 155.246094 149.519531 155.246094 C 147.230469 155.246094 145.328125 156.136719 143.796875 157.796875 L 143.796875 157.921875 L 174.6875 193.238281 C 176.214844 194.898438 178.117188 195.789062 180.402344 195.789062 C 182.695312 195.789062 184.601562 194.898438 186.125 193.238281 L 191.972656 186.480469 L 197.816406 193.238281 C 199.21875 194.898438 201.125 195.789062 203.40625 195.789062 C 205.699219 195.789062 207.605469 194.898438 209.128906 193.238281 C 219.425781 181.382812 229.71875 169.652344 240.011719 157.921875 L 240.011719 157.796875 C 238.488281 156.136719 236.582031 155.246094 234.300781 155.246094 C 232.007812 155.246094 230.101562 156.136719 228.707031 157.796875 L 203.40625 186.609375 L 197.695312 179.980469 L 203.285156 173.476562 L 197.5625 166.976562 L 214.085938 147.980469 C 215.738281 146.066406 215.738281 143.132812 214.085938 141.097656 L 211.289062 138.035156 L 191.972656 160.21875 L 172.527344 138.035156 L 169.730469 141.222656 C 168.078125 143.132812 168.078125 146.066406 169.730469 147.980469 L 186.125 166.847656 L 180.535156 173.351562 L 161.59375 151.679688 C 158.039062 147.597656 158.039062 141.605469 161.59375 137.527344 L 172.527344 125.03125 L 191.972656 147.214844 L 211.289062 125.03125 L 222.21875 137.527344 C 225.78125 141.605469 225.78125 147.597656 222.351562 151.546875 L 197.695312 179.980469 L 191.972656 173.476562 L 186.253906 179.980469 Z M 180.402344 186.609375 " fill-opacity="1" fill-rule="evenodd"/></g><g fill="#f7eed9" fill-opacity="1"><g transform="translate(90.240928, 251.982435)"><g><path d="M 13.078125 0 L 11.953125 -9.046875 L 7.671875 0 L 3.15625 0 L 1.75 -15.15625 L 6.125 -15.15625 L 6.515625 -5.703125 L 10.640625 -15.15625 L 15.09375 -15.15625 L 16.21875 -5.5 L 19.84375 -15.15625 L 24.34375 -15.15625 L 17.40625 0 Z M 13.078125 0 "/></g></g></g><g fill="#f7eed9" fill-opacity="1"><g transform="translate(118.028463, 251.982435)"><g><path d="M 10.0625 0 L 9.640625 -2.65625 L 4.921875 -2.65625 L 3.578125 0 L -1.015625 0 L 7.03125 -14.765625 L 11.65625 -15.421875 L 14.625 0 Z M 6.578125 -6.015625 L 9.125 -6.015625 L 8.515625 -9.859375 Z M 6.578125 -6.015625 "/></g></g></g><g fill="#f7eed9" fill-opacity="1"><g transform="translate(138.647751, 251.982435)"><g><path d="M 10.203125 0 L 5.796875 -8.1875 L 4.359375 0 L 0.28125 0 L 2.9375 -15.15625 L 6.453125 -15.15625 L 11.125 -6.40625 L 12.671875 -15.15625 L 16.734375 -15.15625 L 14.078125 0 Z M 10.203125 0 "/></g></g></g><g fill="#f7eed9" fill-opacity="1"><g transform="translate(160.025015, 251.982435)"><g><path d="M 0.34375 -0.234375 L 2.9375 -15.046875 C 4.519531 -15.273438 5.972656 -15.390625 7.296875 -15.390625 C 9.910156 -15.390625 11.96875 -14.796875 13.46875 -13.609375 C 14.96875 -12.421875 15.71875 -10.628906 15.71875 -8.234375 C 15.71875 -6.796875 15.441406 -5.523438 14.890625 -4.421875 C 14.347656 -3.316406 13.585938 -2.429688 12.609375 -1.765625 C 11.640625 -1.097656 10.53125 -0.59375 9.28125 -0.25 C 8.039062 0.09375 6.6875 0.265625 5.21875 0.265625 C 3.90625 0.265625 2.28125 0.0976562 0.34375 -0.234375 Z M 5.453125 -3.4375 L 6.515625 -3.4375 C 7.960938 -3.4375 9.070312 -3.890625 9.84375 -4.796875 C 10.625 -5.710938 11.015625 -6.859375 11.015625 -8.234375 C 11.015625 -9.367188 10.726562 -10.226562 10.15625 -10.8125 C 9.59375 -11.394531 8.773438 -11.6875 7.703125 -11.6875 L 6.9375 -11.6875 Z M 5.453125 -3.4375 "/></g></g></g><g fill="#f7eed9" fill-opacity="1"><g transform="translate(181.055776, 251.982435)"><g><path d="M 0.28125 0 L 2.9375 -15.15625 L 12.515625 -15.15625 L 11.671875 -11.59375 L 6.859375 -11.59375 L 6.453125 -9.203125 L 11.046875 -9.203125 L 10.453125 -5.84375 L 5.84375 -5.84375 L 5.453125 -3.578125 L 10.703125 -3.578125 L 9.859375 0 Z M 0.28125 0 "/></g></g></g><g fill="#f7eed9" fill-opacity="1"><g transform="translate(197.993488, 251.982435)"><g><path d="M 5.734375 -5.234375 L 4.828125 0 L 0.28125 0 L 2.9375 -15.15625 C 4.613281 -15.332031 6.140625 -15.421875 7.515625 -15.421875 C 11.710938 -15.421875 13.8125 -13.867188 13.8125 -10.765625 C 13.8125 -8.460938 12.753906 -6.867188 10.640625 -5.984375 L 12.53125 0 L 7.921875 0 L 6.5 -5.234375 Z M 6.28125 -8.25 L 6.96875 -8.25 C 7.695312 -8.25 8.253906 -8.460938 8.640625 -8.890625 C 9.023438 -9.328125 9.21875 -9.875 9.21875 -10.53125 C 9.21875 -11.625 8.671875 -12.171875 7.578125 -12.171875 L 6.96875 -12.171875 Z M 6.28125 -8.25 "/></g></g></g><g fill="#f7eed9" fill-opacity="1"><g transform="translate(216.966898, 251.982435)"><g><path d="M 11.171875 -3.796875 L 10.28125 0 L 0.28125 0 L 2.9375 -15.15625 L 7.5 -15.15625 L 5.5 -3.796875 Z M 11.171875 -3.796875 "/></g></g></g><g fill="#f7eed9" fill-opacity="1"><g transform="translate(233.904611, 251.982435)"><g><path d="M 1.40625 -6.96875 L 2.84375 -15.15625 L 7.390625 -15.15625 L 5.9375 -6.90625 C 5.726562 -5.75 5.757812 -4.914062 6.03125 -4.40625 C 6.3125 -3.894531 6.84375 -3.640625 7.625 -3.640625 C 8.363281 -3.640625 8.914062 -3.875 9.28125 -4.34375 C 9.644531 -4.820312 9.9375 -5.675781 10.15625 -6.90625 L 11.609375 -15.15625 L 16.15625 -15.15625 L 14.71875 -7.0625 C 14.257812 -4.4375 13.460938 -2.554688 12.328125 -1.421875 C 11.203125 -0.296875 9.546875 0.265625 7.359375 0.265625 C 4.992188 0.265625 3.304688 -0.34375 2.296875 -1.5625 C 1.296875 -2.789062 1 -4.59375 1.40625 -6.96875 Z M 1.40625 -6.96875 "/></g></g></g><g fill="#f7eed9" fill-opacity="1"><g transform="translate(254.588878, 251.982435)"><g><path d="M 1.171875 -4.171875 C 2.679688 -3.484375 3.957031 -3.140625 5 -3.140625 C 6.21875 -3.140625 6.828125 -3.5 6.828125 -4.21875 C 6.828125 -4.519531 6.695312 -4.796875 6.4375 -5.046875 C 6.175781 -5.304688 5.84375 -5.523438 5.4375 -5.703125 C 5.039062 -5.890625 4.613281 -6.117188 4.15625 -6.390625 C 3.707031 -6.660156 3.285156 -6.957031 2.890625 -7.28125 C 2.492188 -7.613281 2.164062 -8.0625 1.90625 -8.625 C 1.644531 -9.1875 1.515625 -9.828125 1.515625 -10.546875 C 1.515625 -12.046875 2.082031 -13.234375 3.21875 -14.109375 C 4.363281 -14.984375 5.894531 -15.421875 7.8125 -15.421875 C 9.269531 -15.421875 10.796875 -15.050781 12.390625 -14.3125 L 11 -11.125 C 9.6875 -11.71875 8.5625 -12.015625 7.625 -12.015625 C 6.476562 -12.015625 5.90625 -11.691406 5.90625 -11.046875 C 5.90625 -10.753906 6.035156 -10.484375 6.296875 -10.234375 C 6.554688 -9.992188 6.882812 -9.785156 7.28125 -9.609375 C 7.6875 -9.441406 8.113281 -9.21875 8.5625 -8.9375 C 9.019531 -8.664062 9.445312 -8.367188 9.84375 -8.046875 C 10.238281 -7.722656 10.566406 -7.273438 10.828125 -6.703125 C 11.085938 -6.128906 11.21875 -5.476562 11.21875 -4.75 C 11.21875 -3.144531 10.640625 -1.90625 9.484375 -1.03125 C 8.328125 -0.164062 6.703125 0.265625 4.609375 0.265625 C 2.703125 0.265625 1.015625 -0.144531 -0.453125 -0.96875 Z M 1.171875 -4.171875 "/></g></g></g><g fill="#f7eed9" fill-opacity="1"><g transform="translate(271.43997, 251.982435)"><g><path d="M 1.328125 -11.484375 L 2.1875 -15.15625 L 14.625 -15.15625 L 13.75 -11.484375 L 9.921875 -11.484375 L 7.90625 0 L 3.359375 0 L 5.375 -11.484375 Z M 1.328125 -11.484375 "/></g></g></g></svg>