<svg xmlns="http://www.w3.org/2000/svg" xmlns:xlink="http://www.w3.org/1999/xlink" width="500" zoomAndPan="magnify" viewBox="0 0 375 374.999991" height="500" preserveAspectRatio="xMidYMid meet" version="1.0"><defs><clipPath id="1bf877dbd0"><path d="M 135.660156 104.164062 L 248.160156 104.164062 L 248.160156 216.664062 L 135.660156 216.664062 Z M 135.660156 104.164062 " clip-rule="nonzero"/></clipPath><clipPath id="49d24d9b12"><path d="M 191.910156 104.164062 C 160.84375 104.164062 135.660156 129.347656 135.660156 160.414062 C 135.660156 191.480469 160.84375 216.664062 191.910156 216.664062 C 222.976562 216.664062 248.160156 191.480469 248.160156 160.414062 C 248.160156 129.347656 222.976562 104.164062 191.910156 104.164062 Z M 191.910156 104.164062 " clip-rule="nonzero"/></clipPath><clipPath id="3de2780ac7"><path d="M 143.792969 125.289062 L 239.792969 125.289062 L 239.792969 195.789062 L 143.792969 195.789062 Z M 143.792969 125.289062 " clip-rule="nonzero"/></clipPath></defs><g clip-path="url(#1bf877dbd0)"><g clip-path="url(#49d24d9b12)"><path fill="#f7eed9" d="M 135.660156 104.164062 L 248.160156 104.164062 L 248.160156 216.664062 L 135.660156 216.664062 Z M 135.660156 104.164062 " fill-opacity="1" fill-rule="nonzero"/></g></g><g clip-path="url(#3de2780ac7)"><path fill="#b68c6e" d="M 180.402344 186.609375 L 155.242188 157.796875 C 153.714844 156.136719 151.808594 155.246094 149.519531 155.246094 C 147.230469 155.246094 145.328125 156.136719 143.796875 157.796875 L 143.796875 157.921875 L 174.6875 193.238281 C 176.214844 194.898438 178.117188 195.789062 180.402344 195.789062 C 182.695312 195.789062 184.601562 194.898438 186.125 193.238281 L 191.972656 186.480469 L 197.816406 193.238281 C 199.21875 194.898438 201.125 195.789062 203.40625 195.789062 C 205.699219 195.789062 207.605469 194.898438 209.128906 193.238281 C 219.425781 181.382812 229.71875 169.652344 240.011719 157.921875 L 240.011719 157.796875 C 238.488281 156.136719 236.582031 155.246094 234.300781 155.246094 C 232.007812 155.246094 230.101562 156.136719 228.707031 157.796875 L 203.40625 186.609375 L 197.695312 179.980469 L 203.285156 173.476562 L 197.5625 166.976562 L 214.085938 147.980469 C 215.738281 146.066406 215.738281 143.132812 214.085938 141.097656 L 211.289062 138.035156 L 191.972656 160.21875 L 172.527344 138.035156 L 169.730469 141.222656 C 168.078125 143.132812 168.078125 146.066406 169.730469 147.980469 L 186.125 166.847656 L 180.535156 173.351562 L 161.59375 151.679688 C 158.039062 147.597656 158.039062 141.605469 161.59375 137.527344 L 172.527344 125.03125 L 191.972656 147.214844 L 211.289062 125.03125 L 222.21875 137.527344 C 225.78125 141.605469 225.78125 147.597656 222.351562 151.546875 L 197.695312 179.980469 L 191.972656 173.476562 L 186.253906 179.980469 Z M 180.402344 186.609375 " fill-opacity="1" fill-rule="evenodd"/></g></svg>